<?xml version="1.0" standalone="no"?>
<!DOCTYPE svg PUBLIC "-//W3C//DTD SVG 20010904//EN"
 "http://www.w3.org/TR/2001/REC-SVG-20010904/DTD/svg10.dtd">
<svg version="1.0" xmlns="http://www.w3.org/2000/svg"
 width="586.000000pt" height="586.000000pt" viewBox="0 0 586.000000 586.000000"
 preserveAspectRatio="xMidYMid meet">
<metadata>
Created by potrace 1.11, written by Peter Selinger 2001-2013
</metadata>
<g transform="translate(0.000000,586.000000) scale(0.100000,-0.100000)"
fill="#000000" stroke="none">
<path d="M1200 4061 c0 -7 -4 -9 -10 -6 -5 3 -11 1 -11 -4 -1 -6 -2 -16 -3
-23 0 -6 -11 -12 -23 -13 -12 -1 -20 1 -18 4 5 9 -58 6 -73 -3 -7 -4 -12 -2
-12 5 0 10 -3 10 -12 1 -8 -8 -15 -9 -25 -1 -10 9 -13 8 -13 -2 0 -10 -3 -10
-12 -1 -8 8 -17 8 -30 1 -10 -5 -23 -7 -28 -4 -6 4 -10 3 -9 -2 1 -4 1 -16 0
-27 -1 -15 -4 -16 -16 -6 -12 10 -15 10 -15 -1 0 -10 -3 -10 -12 -1 -7 7 -17
8 -30 1 -12 -7 -18 -6 -18 1 0 15 -24 -9 -32 -32 -7 -17 -23 -19 -46 -5 -7 5
-14 2 -18 -7 -3 -9 -10 -13 -15 -10 -5 3 -9 2 -8 -3 4 -22 -3 -34 -18 -31 -12
2 -18 -4 -18 -17 0 -13 -7 -20 -21 -21 -12 -1 -27 -5 -34 -9 -9 -5 -11 -4 -6
3 5 8 2 10 -8 6 -9 -3 -16 -15 -16 -26 0 -10 -3 -17 -7 -15 -10 5 -43 -30 -36
-37 4 -3 -3 -6 -15 -6 -20 0 -28 -15 -23 -43 1 -5 -3 -6 -9 -2 -14 8 -35 -7
-35 -25 0 -9 -9 -15 -22 -14 -12 1 -19 -4 -17 -10 2 -6 -3 -20 -12 -31 -8 -11
-12 -13 -8 -5 7 13 5 13 -9 1 -9 -7 -17 -20 -17 -28 0 -10 -7 -14 -19 -10 -15
4 -18 0 -16 -19 1 -14 -1 -27 -6 -30 -4 -2 -6 -10 -3 -17 2 -7 -6 -19 -20 -27
-14 -7 -24 -18 -23 -24 1 -6 -6 -10 -15 -10 -10 1 -18 -5 -19 -15 -3 -47 -5
-56 -12 -58 -5 -1 -15 -10 -22 -20 -10 -14 -11 -21 -2 -32 9 -11 9 -13 0 -8
-9 6 -11 -3 -7 -34 3 -27 1 -39 -6 -34 -5 3 -10 1 -10 -5 0 -6 -4 -9 -9 -5
-16 10 -23 -15 -9 -32 7 -9 8 -14 2 -11 -13 8 -13 -370 0 -391 6 -9 5 -12 -1
-8 -12 7 -12 -137 -1 -149 4 -4 4 -12 -1 -18 -6 -7 0 -18 17 -30 15 -11 21
-13 15 -6 -7 8 -13 18 -13 24 0 5 6 1 14 -9 8 -11 12 -24 8 -30 -10 -16 -8
-95 3 -94 27 3 34 -3 32 -28 -3 -30 17 -58 32 -48 6 3 8 -4 6 -15 -3 -15 3
-23 19 -30 26 -9 41 -36 26 -45 -14 -8 7 -46 23 -42 7 1 11 -6 11 -15 -1 -10
2 -16 6 -13 5 3 11 1 15 -5 4 -6 10 -8 15 -5 5 3 14 -9 19 -27 5 -18 10 -28
10 -21 1 7 8 10 16 7 9 -4 14 -12 13 -19 -2 -8 1 -14 5 -14 11 0 32 -23 40
-43 4 -11 12 -15 22 -12 10 4 15 0 15 -14 0 -12 5 -24 12 -28 7 -5 8 -2 3 7
-5 8 4 3 18 -10 29 -26 38 -42 12 -21 -13 11 -14 10 -9 -4 4 -9 14 -16 23 -14
10 2 21 -8 30 -27 7 -16 15 -25 17 -19 5 13 54 6 54 -8 0 -5 6 -6 13 -2 9 6 9
5 0 -7 -10 -13 -10 -16 0 -17 6 -1 23 -3 37 -5 14 -1 28 2 32 8 5 6 8 3 9 -7
3 -31 4 -36 11 -44 5 -4 8 -1 8 7 0 12 2 11 10 -1 9 -13 11 -13 20 0 5 8 10
10 10 5 0 -6 16 -10 35 -9 19 1 34 -1 33 -5 -4 -32 3 -38 45 -36 23 2 48 -2
56 -9 12 -8 13 -8 7 2 -4 7 -2 12 6 12 8 0 20 -6 27 -12 8 -7 11 -8 8 -2 -3 6
0 11 7 11 8 0 11 -8 8 -19 -5 -19 -4 -20 43 -22 17 -1 37 -6 45 -11 10 -6 12
-4 7 9 -6 14 -3 15 13 6 11 -6 20 -7 20 -3 0 4 5 1 10 -7 5 -8 10 -10 10 -5 0
6 31 10 74 9 41 0 73 3 70 7 -2 4 -1 14 2 23 5 14 9 14 22 4 11 -9 13 -9 9 -1
-9 14 70 13 92 -1 10 -6 12 -5 7 2 -10 16 16 15 33 0 9 -8 11 -8 8 -2 -7 12
19 29 40 25 7 -1 10 4 7 13 -4 10 3 14 30 14 42 0 57 8 49 27 -3 11 2 15 18
16 56 3 64 5 61 17 -1 6 3 12 9 12 5 0 7 5 3 11 -4 8 0 8 15 0 13 -7 21 -8 21
-2 0 6 7 8 15 5 14 -6 18 3 13 24 -1 4 11 9 28 12 21 4 29 11 29 25 0 16 7 20
37 20 20 0 40 4 45 9 5 5 0 6 -12 2 -20 -7 -20 -7 0 12 11 11 22 20 25 20 28
0 30 3 19 23 -8 15 -8 19 0 15 6 -4 11 -1 11 6 0 10 3 9 10 -2 8 -12 10 -12
16 3 3 9 10 14 15 11 5 -3 6 2 3 10 -4 10 3 17 21 22 20 5 23 9 13 15 -11 7
-10 11 2 19 8 5 10 10 3 10 -6 0 -9 9 -6 20 3 12 8 19 11 16 2 -3 14 0 25 5
16 9 17 13 6 20 -12 7 -11 9 1 10 8 1 18 1 23 0 4 0 7 4 7 10 0 5 4 7 10 4 6
-3 7 1 4 9 -4 11 2 19 19 25 20 8 24 15 21 40 -2 17 1 31 7 31 6 0 7 4 4 10
-4 6 1 7 11 3 11 -4 15 -3 11 4 -4 6 -1 13 5 16 10 3 10 7 1 17 -7 8 -9 19 -4
29 5 9 7 26 6 39 -1 17 4 22 21 22 18 0 22 4 17 17 -5 11 -3 14 6 8 10 -5 11
-3 4 11 -5 11 -9 44 -9 74 1 53 2 55 28 55 20 -1 25 3 20 15 -4 8 -7 89 -7
180 1 154 -6 197 -27 183 -8 -4 -10 7 -12 69 -1 20 -4 40 -8 44 -4 4 -3 13 3
20 14 17 3 34 -22 34 -14 0 -18 6 -15 23 2 12 -2 28 -8 36 -9 12 -8 13 4 6 13
-8 13 -7 1 9 -8 9 -20 15 -28 12 -8 -3 -11 -2 -8 3 3 5 1 12 -5 16 -7 4 -7 12
0 25 7 13 6 21 -4 29 -7 6 -16 8 -19 4 -4 -3 -7 -1 -7 6 0 7 -5 9 -11 5 -8 -5
-9 -2 -1 12 6 10 7 27 2 40 -5 12 -7 24 -4 26 2 3 -3 5 -11 5 -8 0 -12 -5 -9
-11 3 -6 -2 -2 -10 8 -9 11 -16 26 -16 34 0 9 -7 11 -22 6 -20 -6 -21 -5 -9
10 9 11 10 16 2 17 -32 4 -36 6 -34 17 2 7 -1 12 -5 12 -5 0 -8 10 -7 23 3 33
-5 47 -27 47 -16 0 -19 5 -15 21 5 19 2 21 -29 17 -19 -2 -34 0 -34 5 0 4 -4
6 -9 2 -5 -3 -12 -1 -16 5 -3 5 -1 10 6 10 7 0 9 3 5 8 -7 7 -11 8 -37 11 -5
0 -7 6 -4 11 3 6 1 10 -5 10 -6 0 -9 4 -5 9 3 5 -5 11 -17 13 -15 2 -23 10
-23 23 0 21 -34 28 -47 10 -5 -6 -8 -5 -8 3 0 7 -5 10 -10 7 -9 -6 -14 8 -11
28 1 8 -13 10 -41 8 -10 -1 -18 4 -18 11 0 11 -2 11 -9 0 -6 -10 -10 -10 -21
3 -10 12 -10 15 1 15 8 0 5 6 -7 14 -13 10 -23 11 -31 4 -9 -8 -13 -7 -13 3 0
9 -3 10 -8 4 -4 -5 -21 -11 -39 -11 -26 -2 -31 2 -28 17 2 10 -1 19 -6 19 -6
0 -7 4 -4 10 4 7 -3 7 -19 0 -19 -7 -26 -6 -26 3 0 8 -4 7 -10 -3 -8 -12 -10
-12 -10 -1 0 11 -3 11 -15 1 -12 -10 -15 -10 -15 0 0 9 -4 9 -13 2 -8 -7 -18
-7 -27 -2 -9 5 -19 5 -27 -2 -9 -7 -13 -7 -13 1 0 7 -4 9 -10 6 -5 -3 -10 0
-10 8 0 8 -7 20 -15 27 -12 10 -15 10 -15 0 0 -10 -3 -10 -14 -1 -10 9 -16 9
-21 1 -5 -7 -11 -8 -19 -1 -7 6 -17 6 -26 1 -9 -5 -19 -5 -27 2 -9 7 -13 7
-13 -1z m-330 -711 c0 -6 9 -6 24 0 13 5 26 7 29 4 9 -9 87 -10 87 -1 0 5 6 4
13 -2 8 -6 17 -8 20 -4 4 3 7 -3 7 -15 0 -15 6 -22 20 -22 18 0 22 -6 19 -26
-2 -13 23 -21 52 -18 21 3 29 -1 29 -12 0 -8 7 -17 15 -20 8 -4 12 -11 8 -17
-4 -6 -1 -7 8 -1 23 14 49 15 49 1 0 -7 3 -8 8 -2 4 6 25 10 47 11 31 0 40 4
39 17 -1 9 4 17 12 17 8 0 14 5 14 11 0 5 5 7 10 4 6 -3 10 3 10 14 0 17 7 21
38 22 20 1 40 1 43 1 4 -1 5 7 2 18 -4 17 0 19 31 16 20 -1 36 1 36 6 0 5 9 4
20 -2 15 -8 20 -8 20 2 0 8 3 9 8 3 4 -5 21 -10 37 -10 17 0 33 5 37 10 4 6 8
2 8 -7 0 -10 6 -18 13 -18 8 0 7 -4 -3 -10 -12 -8 -9 -10 14 -10 23 0 27 -3
23 -20 -3 -11 -2 -18 3 -15 4 3 19 -4 31 -16 13 -11 17 -17 9 -13 -13 7 -13 5
-1 -9 11 -14 11 -17 0 -17 -12 0 -12 -2 -1 -9 8 -4 14 -12 14 -16 0 -4 -6 -12
-14 -16 -7 -5 -8 -9 -2 -9 14 0 14 -31 0 -49 -8 -11 -8 -13 1 -7 9 5 11 2 7
-9 -5 -12 -9 -13 -20 -4 -8 6 -14 10 -15 8 0 -2 -2 -15 -5 -28 -2 -14 -10 -31
-17 -40 -8 -10 -9 -13 0 -8 6 4 14 3 17 -2 7 -10 -22 -24 -34 -16 -5 3 -12 0
-16 -6 -3 -6 0 -15 7 -20 11 -7 11 -9 1 -9 -7 0 -10 -5 -6 -11 4 -8 0 -8 -15
0 -11 7 -21 10 -22 9 0 -2 -2 -18 -4 -36 -2 -22 0 -30 8 -26 7 3 -1 -5 -18
-19 -16 -14 -33 -23 -37 -21 -3 2 -4 -4 -1 -15 4 -15 0 -18 -22 -16 -20 3 -24
0 -16 -9 13 -15 4 -26 -20 -26 -15 0 -17 -7 -16 -40 2 -22 -1 -41 -5 -41 -4
-1 -14 -2 -20 -3 -7 0 -14 -7 -14 -13 -1 -7 -2 -17 -3 -23 0 -5 -8 -7 -16 -4
-9 4 -15 0 -15 -10 0 -9 -5 -16 -11 -16 -5 0 -7 -4 -4 -10 3 -5 -5 -12 -19
-16 -15 -3 -23 -11 -20 -19 3 -7 0 -16 -6 -20 -8 -5 -8 -11 1 -21 11 -14 10
-15 -13 -18 -7 0 -18 -12 -25 -26 -7 -14 -20 -24 -28 -22 -10 2 -15 -3 -13
-12 2 -8 -1 -15 -6 -15 -5 1 -16 -10 -25 -23 -9 -13 -25 -23 -36 -24 -17 -1
-20 5 -19 38 2 35 -4 43 -29 39 -5 -1 -6 3 -2 9 3 5 1 10 -4 10 -6 0 -10 6 -8
13 1 7 -7 12 -20 11 -17 -1 -20 3 -17 22 3 18 1 22 -11 18 -8 -4 -15 -1 -15 6
0 7 -7 10 -14 7 -10 -4 -13 -1 -9 8 3 8 10 12 17 8 6 -4 5 1 -2 10 -8 9 -11
21 -7 27 3 5 1 10 -5 10 -6 0 -8 5 -4 11 4 8 -1 9 -15 4 -18 -5 -22 -3 -19 12
2 11 -3 18 -12 18 -20 0 -29 14 -25 38 4 15 2 17 -10 7 -11 -10 -15 -10 -15
-1 0 7 -4 9 -10 6 -11 -7 -13 4 -10 48 1 20 -4 29 -22 36 -13 5 -27 6 -32 3
-5 -3 -6 0 -2 7 4 6 13 8 19 4 7 -4 6 0 -2 10 -7 9 -20 17 -27 17 -13 0 -18
12 -15 33 0 4 -2 6 -6 6 -22 -4 -43 2 -43 12 0 5 6 7 13 3 9 -6 9 -4 2 7 -6 8
-10 23 -10 34 1 25 -15 37 -32 24 -9 -8 -11 -6 -8 9 2 12 -5 28 -17 39 -12 10
-18 12 -13 4 6 -10 4 -12 -4 -7 -7 5 -10 14 -7 22 3 8 1 14 -4 14 -8 0 -4 45
6 62 3 4 1 8 -4 8 -13 0 -10 33 3 42 6 5 6 8 -1 8 -6 0 -11 7 -11 15 0 8 4 15
8 15 5 0 6 7 2 17 -5 13 -2 15 15 11 21 -6 24 -1 21 30 0 4 10 10 23 13 13 3
22 11 21 17 -2 7 2 12 8 12 5 0 7 5 4 10 -3 6 -1 10 4 10 6 0 11 -4 11 -10z"/>
<path d="M2900 3863 c0 -7 -11 -13 -25 -13 -18 0 -25 -5 -25 -19 0 -13 -9 -20
-30 -23 -16 -2 -32 0 -34 6 -3 6 -5 5 -5 -2 -1 -7 -6 -10 -11 -7 -6 4 -10 3
-9 -2 5 -28 -3 -40 -25 -38 -19 2 -23 -1 -19 -16 5 -17 -5 -24 -29 -20 -4 0
-5 -9 -3 -20 4 -18 0 -20 -19 -17 -20 4 -23 1 -21 -19 1 -12 -1 -23 -5 -23 -4
0 -5 -12 -2 -26 3 -19 1 -25 -7 -20 -6 4 -11 1 -11 -6 0 -10 -2 -10 -9 1 -6
10 -9 2 -10 -25 -3 -60 -3 -68 -1 -79 6 -26 -1 -46 -12 -39 -10 6 -10 4 0 -8
11 -14 10 -16 -10 -14 -19 2 -24 -2 -24 -19 0 -12 6 -22 13 -23 7 -1 20 -3 27
-4 11 -1 12 -6 6 -18 -5 -10 -7 -19 -5 -22 3 -3 -5 -4 -18 -4 -12 1 -25 6 -29
11 -5 6 -8 5 -8 -3 0 -10 -5 -10 -20 -2 -15 8 -20 8 -20 -2 0 -9 -3 -9 -10 2
-9 13 -10 13 -10 0 0 -13 -1 -13 -10 0 -8 12 -10 12 -10 1 0 -11 -3 -11 -15
-1 -8 7 -15 8 -15 3 0 -6 -10 -9 -23 -8 -24 3 -30 -16 -14 -42 4 -6 1 -14 -5
-17 -10 -5 -10 -7 0 -12 10 -5 10 -9 1 -20 -9 -11 -8 -14 2 -14 9 0 10 -3 4
-8 -12 -8 -14 -262 -2 -262 4 0 7 6 7 13 0 8 2 9 8 1 7 -12 75 -20 107 -14 24
5 46 -1 40 -10 -4 -6 -1 -18 7 -27 11 -14 11 -16 -1 -8 -11 6 -13 4 -8 -7 3
-9 0 -21 -6 -28 -9 -10 -9 -11 0 -6 6 3 14 2 18 -4 3 -5 2 -10 -3 -10 -12 0
-10 -43 3 -52 7 -5 7 -8 0 -8 -6 0 -11 -13 -11 -30 -1 -20 2 -27 10 -23 8 5 8
3 0 -8 -14 -18 -14 -49 0 -49 6 0 4 -4 -4 -10 -8 -5 -11 -12 -7 -16 4 -4 1
-14 -6 -22 -8 -11 -8 -14 0 -9 6 4 14 3 18 -3 3 -5 2 -10 -3 -10 -12 0 -10
-43 3 -52 7 -5 7 -8 0 -8 -6 0 -11 -13 -11 -30 -1 -20 2 -27 10 -23 8 5 8 3 0
-8 -14 -18 -14 -49 0 -49 6 0 4 -4 -4 -10 -8 -5 -11 -12 -7 -16 4 -4 1 -14 -6
-22 -8 -11 -8 -14 0 -9 6 4 14 3 18 -3 3 -5 2 -10 -3 -10 -12 0 -10 -43 3 -52
7 -5 7 -8 0 -8 -6 0 -11 -13 -11 -30 -1 -20 2 -27 10 -23 8 5 8 3 0 -8 -14
-18 -14 -49 0 -49 6 0 4 -4 -4 -10 -8 -5 -11 -12 -7 -16 4 -4 1 -14 -6 -22 -8
-11 -8 -14 0 -9 6 4 14 3 18 -3 3 -5 2 -10 -2 -10 -5 0 -9 -13 -9 -30 -1 -20
2 -27 10 -23 6 4 5 -1 -3 -11 -12 -14 -12 -19 -1 -29 10 -10 11 -9 5 3 -6 11
-3 10 12 -2 22 -20 33 -23 33 -7 0 5 -5 7 -12 3 -7 -4 -8 -3 -4 5 5 7 12 9 19
3 19 -14 198 -13 190 1 -3 7 3 4 14 -6 11 -9 23 -14 26 -11 4 4 34 7 67 6 42
0 58 3 54 11 -4 7 1 5 10 -4 22 -21 73 -13 87 14 9 16 9 19 -4 14 -13 -5 -13
-2 -1 21 9 17 10 30 4 36 -14 14 -12 29 2 20 7 -5 8 -3 3 5 -10 17 -12 172 -2
178 4 2 5 9 1 14 -10 17 -12 59 -2 65 5 3 4 11 -2 19 -8 10 -8 19 0 36 8 13 8
19 1 15 -11 -7 -8 45 5 65 5 8 2 10 -8 6 -14 -5 -15 -3 -2 21 9 17 10 30 4 36
-12 12 -13 29 -2 22 10 -6 9 25 -1 41 -5 7 -3 22 4 34 9 17 8 20 -2 14 -9 -6
-10 -3 -5 11 10 25 12 87 2 102 -4 6 -2 20 4 31 7 13 7 22 0 26 -5 3 -10 11
-10 16 0 6 4 8 8 5 5 -3 9 1 9 9 0 8 -4 15 -8 15 -5 0 -6 6 -4 13 4 8 28 11
82 10 51 -1 80 2 85 10 6 9 8 9 8 0 0 -7 14 -11 38 -9 l37 2 1 188 c1 174 0
187 -16 183 -10 -2 -24 -1 -31 4 -7 4 -20 4 -29 -1 -11 -6 -21 -5 -28 2 -8 8
-12 8 -12 1 0 -7 -14 -8 -40 -3 -27 5 -40 4 -40 -4 0 -6 -5 -4 -10 4 -6 9 -10
11 -10 3 0 -7 -7 -10 -15 -7 -8 4 -13 10 -10 14 3 5 -1 11 -7 13 -10 4 -10 6
0 6 7 1 11 5 7 10 -3 6 4 8 15 6 21 -4 23 1 20 52 -1 27 2 32 18 28 12 -2 23
3 26 11 3 8 1 12 -4 9 -5 -3 -7 0 -5 7 3 8 13 14 23 14 9 1 24 3 32 5 9 2 14
-2 12 -11 -1 -10 2 -9 13 4 11 14 15 16 15 5 0 -12 2 -12 10 1 9 13 14 8 11
-12 0 -4 11 0 26 7 15 8 31 11 36 8 6 -4 7 -1 2 7 -8 14 -11 272 -2 287 6 13
-26 38 -51 39 -12 0 -22 -4 -22 -10 0 -5 -7 -1 -16 10 -8 10 -12 13 -8 5 5
-11 2 -13 -14 -9 -12 3 -23 1 -26 -6 -3 -7 -5 -7 -5 2 -1 7 -6 10 -11 7 -6 -4
-18 -1 -26 6 -12 10 -13 9 -8 -4 4 -12 1 -14 -15 -10 -12 3 -18 10 -14 17 5 8
3 8 -8 0 -23 -19 -53 -21 -67 -4 -9 9 -11 10 -6 1 5 -11 0 -13 -24 -9 -17 2
-34 0 -36 -6 -3 -7 -5 -6 -5 1 -1 7 -8 10 -17 6 -9 -3 -20 0 -25 8 -6 10 -9
10 -9 2z"/>
<path d="M3810 3355 c5 -25 -1 -46 -12 -42 -7 2 -23 0 -35 -4 -13 -5 -25 -4
-28 2 -4 5 -11 6 -17 3 -6 -4 -24 -7 -39 -6 -16 0 -29 -4 -29 -9 0 -6 -6 -7
-12 -3 -9 5 -9 2 1 -9 12 -15 11 -17 -5 -18 -11 -1 -27 0 -38 1 -13 1 -16 -2
-10 -12 6 -10 4 -10 -9 1 -15 12 -17 11 -18 -5 -1 -11 -1 -23 0 -27 1 -4 -8
-3 -18 3 -14 7 -22 7 -27 -2 -5 -7 -3 -8 6 -3 9 5 11 4 6 -4 -6 -8 -12 -9 -20
-2 -9 7 -16 7 -24 -1 -15 -15 -16 -31 0 -22 8 5 8 3 2 -7 -12 -19 -14 -78 -3
-85 5 -3 6 -11 2 -17 -12 -19 -10 -197 2 -197 7 0 7 -3 0 -8 -12 -8 -14 -81
-2 -99 4 -6 4 -14 -1 -17 -10 -6 -9 -157 2 -175 7 -10 6 -12 -4 -6 -10 6 -12
4 -7 -7 3 -9 0 -21 -6 -28 -9 -10 -9 -11 2 -5 10 6 13 4 8 -7 -3 -9 0 -21 6
-28 9 -10 9 -11 0 -6 -8 4 -13 2 -13 -6 0 -8 6 -20 13 -27 7 -8 7 -11 1 -8
-14 8 -13 -51 0 -72 6 -9 5 -12 -2 -7 -12 7 -11 -41 1 -61 4 -6 3 -14 -2 -17
-10 -6 -9 -66 1 -82 4 -6 4 -14 0 -18 -11 -12 -9 -130 3 -142 14 -15 127 -16
118 -1 -3 7 3 4 14 -6 11 -9 23 -14 26 -11 4 4 34 7 67 6 43 0 58 3 53 11 -3
7 3 4 14 -6 11 -9 22 -15 24 -12 3 2 44 6 91 7 72 1 85 4 83 17 -1 9 1 23 6
32 5 9 4 20 -2 26 -8 8 -8 13 0 17 7 5 7 15 0 34 -7 18 -7 28 0 30 6 2 8 8 5
14 -11 18 -11 103 1 111 7 5 6 10 -3 16 -8 4 -14 12 -14 16 0 4 6 12 14 16 7
5 8 9 2 9 -14 0 -14 30 0 30 6 0 5 4 -2 9 -8 4 -14 12 -14 16 0 4 6 12 14 16
7 5 8 9 3 9 -6 0 -10 23 -10 50 0 28 3 50 8 50 4 0 5 5 1 11 -10 17 -12 109
-2 109 5 0 6 5 2 11 -11 19 -11 103 1 112 7 5 6 10 -3 16 -8 4 -14 12 -14 16
0 4 6 12 14 16 7 5 8 9 2 9 -6 0 -9 15 -8 33 1 17 3 46 3 62 1 17 5 25 9 19 9
-15 64 -15 55 0 -5 8 -3 8 8 0 20 -15 61 -16 52 -1 -4 7 1 5 11 -3 10 -8 31
-13 47 -12 25 3 29 0 29 -22 0 -14 5 -26 10 -26 6 0 10 5 10 11 0 5 5 7 11 4
6 -4 8 -9 5 -12 -3 -3 -1 -15 5 -26 8 -14 8 -18 0 -13 -15 10 -14 -7 2 -23 10
-12 9 -13 -7 -7 -14 5 -16 3 -9 -6 6 -7 10 -35 9 -63 -1 -27 2 -58 7 -69 6
-13 6 -16 -2 -12 -15 10 -14 -7 2 -23 10 -12 9 -13 -7 -7 -20 7 -20 7 0 -15
10 -12 13 -19 7 -15 -7 4 -13 3 -13 -1 0 -5 6 -15 13 -22 10 -12 9 -13 -7 -7
-14 5 -16 3 -9 -6 6 -7 10 -35 9 -63 -1 -27 2 -58 7 -69 6 -13 6 -16 -2 -12
-15 10 -14 -7 2 -23 10 -12 9 -13 -7 -7 -20 7 -20 7 0 -15 10 -12 13 -19 7
-15 -7 4 -13 3 -13 -1 0 -5 6 -15 13 -22 10 -12 9 -13 -7 -7 -16 5 -17 4 -6
-9 7 -8 10 -23 7 -34 -2 -10 0 -26 6 -36 5 -10 5 -15 0 -12 -11 7 -9 -106 2
-124 6 -9 3 -11 -11 -6 -18 7 -18 6 -1 -7 10 -8 14 -16 9 -17 -6 -2 -7 -20 -3
-39 l6 -36 112 -1 c62 -1 117 -5 124 -9 7 -4 10 -3 6 2 -3 5 39 9 98 9 57 0
101 -4 98 -8 -3 -5 3 -5 13 1 11 5 27 8 37 7 21 -4 21 -1 1 19 -13 14 -13 16
0 16 12 0 13 6 6 30 -6 21 -5 30 3 30 8 0 7 3 -2 9 -11 7 -11 9 0 14 12 4 11
7 -1 16 -13 10 -13 11 0 11 13 0 13 1 0 10 -8 5 -10 10 -4 10 10 0 10 70 -1
98 -2 6 0 12 5 12 5 0 5 13 0 30 -6 21 -5 30 3 30 8 0 7 3 -2 9 -11 7 -11 9 0
14 12 4 11 7 -1 16 -13 10 -13 11 0 11 13 0 13 1 0 10 -8 5 -10 10 -4 10 10 0
10 70 -1 98 -2 6 0 12 5 12 5 0 5 13 0 30 -6 21 -5 30 3 30 8 0 7 3 -2 9 -8 5
-9 10 -3 12 8 3 8 17 3 42 -5 20 -5 37 -1 37 5 0 5 14 0 30 -6 21 -5 30 3 30
8 0 7 3 -2 9 -11 7 -11 9 0 14 12 4 11 7 -1 16 -13 10 -13 11 0 11 13 0 13 1
0 10 -8 5 -10 10 -5 10 10 0 11 70 1 95 -4 12 8 15 52 15 16 0 21 4 16 13 -6
9 -5 9 8 0 8 -7 35 -12 59 -12 74 2 78 1 72 -23 -4 -19 -3 -20 6 -8 8 11 11
12 11 2 0 -7 5 -10 10 -7 6 3 10 0 10 -9 0 -8 5 -16 12 -18 7 -3 8 -9 3 -19
-13 -20 -15 -39 -4 -39 6 0 5 -8 -1 -20 -7 -13 -7 -20 -1 -20 7 0 7 -9 0 -27
-7 -19 -6 -28 2 -34 7 -4 8 -12 3 -20 -12 -20 -14 -39 -3 -39 6 0 5 -8 -1 -20
-8 -15 -8 -20 2 -20 10 0 10 -2 -1 -9 -11 -7 -11 -9 0 -14 12 -4 11 -7 -1 -16
-13 -9 -13 -12 -1 -20 8 -5 10 -14 5 -22 -12 -20 -14 -39 -3 -39 6 0 5 -8 -1
-20 -7 -13 -7 -20 -1 -20 7 0 7 -9 0 -27 -7 -19 -6 -28 2 -34 7 -4 8 -12 3
-20 -12 -20 -14 -39 -3 -39 6 0 5 -8 -1 -20 -8 -15 -8 -20 2 -20 10 0 10 -2
-1 -9 -11 -7 -11 -9 0 -14 12 -4 11 -7 -1 -16 -13 -9 -13 -12 -1 -20 8 -5 10
-14 5 -22 -12 -20 -14 -39 -3 -39 6 0 5 -8 -1 -20 -7 -13 -7 -20 -1 -20 7 0 7
-9 0 -27 -7 -19 -7 -29 0 -31 6 -2 11 -8 11 -13 0 -6 -5 -7 -10 -4 -6 4 -6 -4
1 -18 11 -24 15 -25 104 -25 51 0 98 -3 105 -7 8 -5 11 -4 7 1 -7 11 146 10
164 -2 9 -5 10 -2 5 11 -5 14 -3 15 6 8 14 -12 102 -12 114 0 4 4 2 7 -5 7 -7
0 -9 5 -4 13 12 19 12 37 1 37 -6 0 -5 6 2 15 9 11 9 15 1 15 -7 0 -9 5 -4 13
12 20 12 37 0 37 -8 0 -8 3 -2 8 14 10 17 32 4 32 -5 0 -7 5 -4 11 11 16 12
70 3 75 -5 3 -4 12 3 20 9 11 9 14 -1 14 -10 0 -10 3 0 15 9 11 9 15 1 15 -7
0 -9 5 -4 13 12 20 12 37 0 37 -8 0 -8 3 -2 8 14 10 17 32 4 32 -5 0 -7 5 -4
11 11 16 12 70 3 75 -5 3 -4 12 3 20 9 11 9 14 -1 14 -10 0 -10 3 0 15 10 12
10 15 0 15 -10 0 -10 3 -1 14 8 9 8 16 2 20 -7 4 -7 15 -1 31 6 16 6 27 -1 31
-6 4 -6 11 2 20 9 11 9 14 -1 14 -10 0 -10 3 0 15 9 11 9 15 1 15 -7 0 -9 5
-4 13 12 20 12 37 0 37 -8 0 -8 3 -2 8 14 10 17 32 5 32 -7 0 -7 7 1 21 8 16
8 20 -1 14 -9 -6 -9 -2 -1 14 9 16 9 21 0 21 -8 0 -7 5 2 17 10 11 10 14 2 9
-8 -4 -13 -2 -13 6 0 9 -3 9 -10 -2 -9 -13 -11 -13 -19 0 -7 10 -6 17 2 22 9
6 8 8 -3 8 -13 0 -13 1 0 10 12 8 12 10 1 10 -11 0 -11 3 -1 15 10 12 10 15
-1 15 -11 0 -11 2 1 10 10 6 11 10 3 10 -7 0 -13 7 -13 16 0 14 -3 14 -15 4
-13 -11 -14 -10 -9 5 5 13 4 16 -4 11 -14 -8 -12 20 2 43 6 10 5 12 -2 7 -7
-4 -12 0 -12 10 0 10 -3 14 -7 11 -11 -12 -32 14 -26 31 6 15 5 16 -12 2 -11
-9 -16 -10 -11 -2 4 7 1 12 -9 12 -10 0 -15 7 -13 18 2 13 -4 17 -27 18 -52 2
-55 4 -55 24 0 17 -7 20 -40 20 -38 0 -46 7 -40 35 1 6 -2 7 -6 3 -4 -4 -13
-3 -21 3 -8 7 -13 7 -13 2 0 -7 -15 -8 -40 -3 -22 4 -40 3 -40 -1 0 -5 -5 -9
-11 -9 -5 0 -8 4 -5 8 3 5 -1 9 -9 9 -8 0 -15 -4 -15 -9 0 -4 -5 -8 -11 -8 -5
0 -7 5 -3 12 5 7 3 8 -6 3 -11 -7 -83 -11 -92 -5 -10 6 -88 3 -88 -2 0 -5 -5
-8 -11 -8 -5 0 -8 4 -5 8 3 5 -1 9 -9 9 -8 0 -15 -4 -15 -9 0 -4 -5 -8 -11 -8
-5 0 -7 5 -3 12 5 7 3 8 -6 3 -16 -10 -83 -11 -98 -1 -7 4 -12 2 -12 -3 0 -6
-5 -11 -11 -11 -5 0 -8 4 -5 8 3 5 -1 9 -9 9 -8 0 -11 -5 -8 -10 4 -6 -1 -8
-11 -4 -9 4 -15 3 -13 -1 3 -4 -6 -15 -19 -25 -16 -12 -24 -14 -24 -5 0 7 -3
8 -9 3 -6 -6 -35 -8 -65 -7 -45 3 -54 7 -51 21 2 13 -5 18 -33 19 -19 2 -39 5
-44 8 -4 3 -8 0 -8 -5 0 -6 -5 -11 -11 -11 -5 0 -8 4 -5 8 3 5 -1 9 -9 9 -8 0
-15 -4 -15 -9 0 -4 -5 -8 -11 -8 -5 0 -7 5 -3 12 5 7 3 8 -6 3 -19 -12 -89
-12 -94 0 -3 6 -5 5 -5 -1 -1 -8 -14 -9 -41 -4 -22 4 -40 3 -40 -1 0 -5 -5 -9
-11 -9 -5 0 -8 4 -5 8 3 5 -1 9 -9 9 -8 0 -15 -4 -15 -9 0 -4 -5 -8 -11 -8 -5
0 -7 5 -3 12 5 7 3 8 -6 3 -14 -9 -87 -11 -95 -3 -3 3 -23 2 -45 -2 -24 -4
-43 -3 -50 4 -7 6 -11 7 -10 1z"/>
<path d="M1576 1892 c-3 -5 1 -9 9 -9 8 0 12 4 9 9 -3 4 -7 8 -9 8 -2 0 -6 -4
-9 -8z"/>
</g>
</svg>
