<?xml version="1.0" standalone="no"?>
<!DOCTYPE svg PUBLIC "-//W3C//DTD SVG 20010904//EN"
 "http://www.w3.org/TR/2001/REC-SVG-20010904/DTD/svg10.dtd">
<svg version="1.0" xmlns="http://www.w3.org/2000/svg"
 width="398.000000pt" height="398.000000pt" viewBox="0 0 398.000000 398.000000"
 preserveAspectRatio="xMidYMid meet">
<metadata>
Created by potrace 1.11, written by Peter Selinger 2001-2013
</metadata>
<g transform="translate(0.000000,398.000000) scale(0.100000,-0.100000)"
fill="#000000" stroke="none">
<path d="M1906 3748 c-8 -5 -44 -9 -80 -9 -36 -1 -66 -4 -66 -8 0 -4 -28 -7
-62 -6 -41 1 -71 -4 -86 -13 -12 -8 -43 -14 -69 -14 -26 1 -50 -3 -54 -9 -3
-6 -25 -13 -48 -16 -22 -3 -41 -10 -41 -15 0 -5 -4 -7 -9 -3 -5 3 -12 1 -16
-5 -3 -5 -17 -10 -30 -10 -12 0 -25 -7 -29 -15 -3 -8 -9 -14 -13 -13 -16 4
-73 -14 -73 -23 0 -5 -3 -8 -7 -7 -10 3 -127 -55 -131 -65 -2 -4 -8 -5 -13 -1
-5 3 -9 0 -9 -5 0 -6 -9 -11 -20 -11 -13 0 -18 -5 -14 -15 4 -8 1 -15 -6 -15
-24 0 -80 -33 -80 -47 0 -8 -5 -11 -10 -8 -6 3 -17 -1 -26 -9 -8 -9 -22 -16
-30 -16 -8 0 -14 -7 -14 -15 0 -8 -7 -15 -15 -15 -8 0 -15 -4 -15 -8 0 -5 -18
-21 -40 -38 -22 -16 -40 -35 -40 -41 0 -7 -3 -13 -8 -12 -18 3 -52 -15 -52
-27 0 -8 -7 -14 -15 -14 -8 0 -15 -6 -15 -14 0 -7 -7 -19 -15 -26 -9 -7 -14
-15 -11 -17 2 -3 -16 -24 -40 -47 -24 -24 -44 -48 -44 -55 0 -6 -7 -11 -15
-11 -8 0 -15 -6 -15 -14 0 -7 -16 -33 -35 -57 -19 -24 -35 -48 -35 -53 0 -4
-11 -21 -25 -38 -14 -16 -25 -36 -25 -44 0 -8 -4 -14 -9 -14 -5 0 -12 -13 -16
-30 -4 -16 -11 -30 -16 -30 -6 0 -8 -4 -5 -8 3 -5 -3 -18 -13 -28 -9 -11 -16
-25 -13 -32 2 -6 -1 -12 -6 -12 -6 0 -13 -15 -17 -32 -9 -43 -47 -138 -55
-138 -4 0 -10 -23 -13 -50 -3 -28 -10 -56 -14 -63 -4 -6 -8 -28 -8 -47 0 -19
-3 -39 -6 -45 -14 -23 -21 -74 -20 -147 0 -50 -3 -78 -10 -78 -8 0 -7 -5 1
-15 7 -8 8 -15 3 -15 -14 0 -13 -181 0 -197 6 -9 6 -13 -3 -13 -9 0 -9 -4 -2
-12 5 -7 10 -40 11 -73 0 -60 8 -112 20 -130 3 -5 6 -26 6 -45 0 -19 4 -40 8
-47 4 -6 10 -33 14 -60 3 -26 12 -52 20 -56 7 -4 13 -24 13 -42 0 -19 4 -35
10 -35 5 0 13 -12 16 -27 4 -16 25 -61 46 -102 21 -41 38 -80 38 -88 0 -7 5
-13 10 -13 6 0 10 -6 10 -14 0 -7 9 -25 20 -39 11 -14 20 -32 20 -41 0 -9 7
-16 15 -16 8 0 15 -6 15 -14 0 -8 8 -21 19 -28 10 -7 22 -24 26 -38 4 -14 27
-44 51 -68 24 -23 44 -46 44 -51 0 -5 7 -14 15 -21 8 -7 13 -16 10 -20 -3 -4
5 -10 16 -13 12 -3 18 -10 14 -16 -3 -6 1 -11 9 -11 9 0 16 -7 16 -16 0 -10 6
-14 15 -10 10 4 15 -1 15 -16 0 -12 3 -18 6 -15 4 4 21 -6 39 -21 61 -52 75
-62 85 -62 6 0 10 -7 10 -15 0 -8 5 -15 10 -15 6 0 21 -9 33 -20 12 -12 32
-23 44 -26 13 -4 23 -12 23 -20 0 -8 7 -14 15 -14 8 0 15 -4 15 -10 0 -5 7 -7
15 -4 8 4 15 1 15 -5 0 -6 7 -11 16 -11 11 0 14 -5 10 -16 -5 -13 -1 -15 24
-12 20 3 30 0 30 -9 0 -7 11 -13 25 -13 14 0 28 -7 31 -15 4 -8 17 -15 30 -15
15 0 24 -6 24 -15 0 -10 10 -15 28 -15 16 0 37 -7 48 -15 10 -8 28 -15 39 -15
11 0 33 -7 49 -15 15 -8 32 -13 36 -10 4 2 24 -4 45 -14 21 -10 49 -17 64 -15
14 1 29 -3 33 -9 4 -7 40 -13 88 -15 44 -2 80 -7 80 -11 0 -4 21 -6 48 -6 26
1 52 -3 59 -7 17 -13 325 1 339 15 4 4 24 7 44 7 52 0 101 11 95 21 -3 4 17 8
45 7 31 0 58 6 68 15 9 7 30 13 45 12 17 -1 31 4 34 11 3 9 21 14 44 14 28 0
39 4 39 15 0 9 9 15 22 15 21 0 108 37 118 50 3 4 22 13 43 20 21 6 41 18 44
26 3 8 16 14 29 14 15 0 24 6 24 15 0 8 7 15 15 15 8 0 15 7 15 15 0 10 10 15
30 15 20 0 30 5 30 15 0 8 7 15 16 15 8 0 12 5 9 10 -3 6 1 10 9 10 9 0 16 4
16 9 0 5 14 12 30 16 17 4 30 13 30 21 0 8 7 14 15 14 8 0 15 7 15 15 0 8 7
15 17 15 9 0 14 3 10 6 -5 6 33 49 44 49 10 0 69 63 69 74 0 6 7 11 15 11 8 0
14 6 13 13 -2 6 3 11 10 9 6 -1 12 5 12 13 0 8 6 15 14 15 7 0 16 9 19 20 8
31 10 33 34 56 13 12 23 26 23 33 0 6 5 10 12 9 7 -2 12 6 12 17 0 11 6 24 13
28 7 4 13 15 13 22 0 8 7 15 15 15 8 0 15 9 15 20 0 11 4 20 9 20 5 0 15 16
22 35 7 19 17 35 21 35 4 0 8 6 8 13 0 6 11 33 25 59 14 26 25 53 25 61 0 8 7
20 15 27 8 7 15 27 15 46 0 18 6 37 13 41 8 4 17 26 20 47 4 22 11 42 16 45 6
4 11 27 12 51 1 25 7 51 12 58 6 7 9 36 8 63 -1 28 2 56 7 62 15 19 24 119 23
269 0 149 -7 208 -23 208 -6 0 -5 6 2 15 9 10 9 15 1 15 -6 0 -11 18 -11 43 0
23 -5 58 -11 77 -6 19 -10 54 -10 76 1 29 -4 44 -14 48 -9 3 -15 19 -15 41 0
22 -6 38 -15 41 -9 4 -15 19 -15 39 0 19 -7 40 -15 49 -8 8 -15 21 -15 29 0 8
-7 20 -15 27 -8 7 -13 16 -10 20 2 4 -2 16 -10 26 -8 10 -15 26 -15 35 0 9 -7
19 -15 23 -8 3 -15 17 -15 31 0 14 -7 28 -15 31 -8 4 -15 12 -15 19 0 8 -13
29 -30 47 -16 18 -29 37 -27 43 1 5 -14 28 -33 49 -19 21 -34 42 -33 47 2 5
-2 9 -7 9 -6 0 -10 7 -10 15 0 8 -7 15 -15 15 -8 0 -15 7 -15 15 0 8 -7 15
-15 15 -9 0 -12 6 -9 15 5 11 2 13 -10 9 -11 -4 -16 -1 -16 10 0 9 -7 16 -15
16 -8 0 -15 7 -15 15 0 8 -7 15 -15 15 -8 0 -15 7 -15 15 0 8 -6 15 -12 15 -7
0 -22 13 -33 29 -10 16 -23 27 -27 25 -4 -3 -8 2 -8 10 0 9 -7 16 -15 16 -8 0
-15 5 -15 10 0 6 -5 10 -10 10 -6 0 -20 9 -32 20 -12 11 -28 20 -35 20 -7 0
-13 7 -13 15 0 8 -11 17 -25 21 -14 3 -25 10 -25 15 0 5 -7 6 -15 3 -9 -4 -15
0 -15 9 0 9 -18 23 -40 33 -22 10 -40 24 -40 31 0 8 -12 13 -30 13 -21 0 -30
5 -30 16 0 9 -8 14 -17 13 -32 -3 -43 1 -41 14 2 7 -8 12 -24 11 -17 0 -28 5
-28 13 0 7 -8 13 -18 13 -10 0 -36 9 -58 19 -21 11 -42 17 -47 14 -4 -2 -18 2
-30 10 -12 8 -39 17 -59 21 -21 4 -38 11 -38 15 0 5 -21 8 -47 8 -27 0 -64 7
-83 15 -20 8 -60 14 -92 13 -32 -1 -58 2 -58 6 0 5 -24 9 -52 10 -29 0 -76 4
-105 8 -29 4 -59 4 -67 -1z m-366 -1120 c0 -5 7 -8 15 -8 8 0 15 -5 15 -11 0
-6 7 -8 16 -5 18 7 108 -56 157 -111 12 -13 27 -23 34 -23 7 0 13 -7 13 -15 0
-10 10 -15 29 -15 16 0 31 -6 34 -12 2 -9 33 -13 107 -13 74 0 105 4 108 13 2
6 17 12 33 12 20 0 29 5 29 16 0 8 5 12 10 9 6 -3 10 -2 10 4 0 5 14 12 30 16
17 4 30 13 30 21 0 8 7 14 15 14 8 0 15 7 15 15 0 8 7 15 15 15 8 0 15 6 15
14 0 13 54 41 73 37 4 0 7 3 7 8 0 13 43 21 119 22 55 1 78 -4 117 -25 27 -14
55 -26 61 -26 7 0 13 -7 13 -15 0 -8 7 -15 15 -15 8 0 15 -6 15 -14 0 -8 7
-16 15 -19 8 -3 12 -15 10 -26 -2 -12 3 -21 16 -24 13 -3 17 -11 13 -21 -3 -9
2 -33 11 -53 13 -27 16 -49 11 -92 -4 -30 -12 -58 -18 -62 -6 -4 -8 -14 -5
-23 4 -10 -1 -20 -14 -26 -11 -6 -18 -14 -15 -18 6 -10 -31 -74 -41 -70 -4 2
-9 -7 -11 -20 -2 -13 -10 -26 -18 -29 -8 -3 -14 -11 -14 -19 0 -8 -7 -14 -16
-14 -8 0 -13 -4 -10 -9 3 -4 -3 -16 -14 -26 -11 -10 -17 -21 -15 -25 3 -4 -2
-10 -10 -14 -8 -3 -15 -12 -15 -21 0 -8 -7 -15 -15 -15 -8 0 -15 -5 -15 -12 0
-6 -12 -27 -27 -47 -16 -20 -28 -40 -28 -46 -1 -5 -6 -9 -13 -8 -6 2 -18 -12
-25 -30 -8 -17 -21 -38 -30 -46 -10 -7 -17 -20 -17 -27 0 -8 -6 -14 -14 -14
-8 0 -18 -10 -22 -22 -3 -12 -12 -27 -18 -34 -31 -32 -56 -65 -56 -74 0 -6 -4
-10 -10 -10 -5 0 -10 -7 -10 -15 0 -8 -9 -20 -20 -27 -11 -7 -20 -18 -20 -25
0 -7 -7 -13 -16 -13 -10 0 -14 -6 -11 -14 3 -8 -4 -24 -16 -37 -12 -13 -22
-26 -22 -29 0 -3 -3 -4 -7 -3 -5 2 -8 -4 -8 -12 0 -8 -7 -15 -15 -15 -8 0 -15
-9 -15 -19 0 -11 -7 -26 -15 -35 -8 -8 -15 -19 -15 -25 0 -6 -6 -11 -14 -11
-8 0 -17 -11 -20 -25 -4 -14 -11 -25 -17 -25 -6 0 -8 -4 -5 -9 3 -5 -1 -11 -9
-15 -8 -3 -15 -12 -15 -21 0 -8 -8 -15 -17 -15 -18 0 -53 28 -53 42 0 5 -14
23 -30 41 -17 18 -33 42 -36 54 -3 12 -12 24 -20 27 -8 3 -14 12 -14 21 0 8
-6 15 -14 15 -8 0 -18 9 -21 20 -3 11 -11 20 -17 20 -5 0 -8 6 -5 14 3 7 -2
20 -11 28 -33 29 -62 68 -68 92 -4 16 -11 23 -20 19 -8 -3 -14 1 -14 9 0 8 -8
23 -18 34 -9 10 -23 32 -30 47 -6 15 -17 25 -22 22 -6 -3 -10 0 -10 8 0 8 -9
22 -20 32 -11 10 -20 24 -20 32 0 7 -4 13 -10 13 -5 0 -10 7 -10 15 0 8 -7 15
-16 15 -8 0 -13 4 -10 8 3 5 -6 19 -19 30 -13 12 -27 33 -31 47 -3 14 -12 25
-20 25 -8 0 -14 7 -14 15 0 9 -7 18 -15 21 -8 4 -15 14 -15 24 0 10 -7 21 -16
24 -9 4 -14 9 -11 12 3 3 -5 16 -17 28 -13 11 -24 26 -25 31 -1 11 -37 58 -63
83 -10 9 -18 22 -18 29 0 7 -5 13 -10 13 -6 0 -9 3 -8 8 1 4 -4 18 -11 32 -8
13 -14 41 -14 62 0 21 -4 38 -9 38 -4 0 -8 11 -8 25 0 14 5 25 10 25 6 0 10
12 9 28 -3 37 11 92 22 92 6 0 7 5 4 10 -3 6 -2 10 3 10 6 0 12 10 16 23 3 13
17 29 31 37 14 7 23 16 20 18 -6 6 78 51 112 61 32 9 153 8 153 -1z"/>
</g>
</svg>
